# xmcd
# 
# Track frame offsets:
#     150
#     16815
#     32455
#     47449
#     66611
#     81697
#     103171
#     126781
# 
# Disc length: 2091
# 
# Revision: 0
# Processed by: cddbd v1.5.2PL0 Copyright (c) Steve Scherf et al.
# Submitted via: BonkEnc v1.0.8
# 
DISCID=68082908
DTITLE=Bob Evans - Mornin' Richmond! Live at the Corner Hotel
DYEAR=2009
DGENRE=Rock
TTITLE0=Someone So Much
TTITLE1=Hand Me Downs
TTITLE2=Friend
TTITLE3=Rocks In My Head
TTITLE4=Flame
TTITLE5=Nowhere Without You
TTITLE6=Sadness and Whiskey/Dock of the Bay
TTITLE7=Pasha Bulker
EXTD=
EXTT0=
EXTT1=
EXTT2=
EXTT3=
EXTT4=
EXTT5=
EXTT6=
EXTT7=
PLAYORDER=
